<?xml version="1.0" encoding="UTF-8"?>
<svg width="1343px" height="1590px" viewBox="0 0 1343 1590" version="1.1" xmlns="http://www.w3.org/2000/svg" xmlns:xlink="http://www.w3.org/1999/xlink">
    <title>Shape</title>
    <g id="Page-1" stroke="none" stroke-width="1" fill="none" fill-rule="evenodd">
        <path d="M1203.485,1455.68 C1207.505,1455.68 1211.42,1455.995 1215.23,1456.625 C1219.04,1457.255 1222.655,1458.185 1226.075,1459.415 C1229.495,1460.645 1232.69,1462.115 1235.66,1463.825 C1238.40154,1465.40346 1240.87467,1467.17364 1243.07941,1469.13553 L1243.625,1469.63 L1236.065,1483.76 L1235.83906,1484.1125 C1235.00719,1485.3775 1234.1375,1486.34 1233.23,1487 C1232.24,1487.72 1230.965,1488.08 1229.405,1488.08 C1228.025,1488.08 1226.54,1487.645 1224.95,1486.775 L1221.49,1484.895 C1220.86667,1484.55833 1220.22,1484.21 1219.55,1483.85 C1217.54,1482.77 1215.245,1481.795 1212.665,1480.925 C1210.085,1480.055 1207.145,1479.62 1203.845,1479.62 C1198.145,1479.62 1193.9,1480.835 1191.11,1483.265 C1188.32,1485.695 1186.925,1488.98 1186.925,1493.12 C1186.925,1495.76 1187.765,1497.95 1189.445,1499.69 C1191.125,1501.43 1193.33,1502.93 1196.06,1504.19 C1198.58,1505.35308 1201.43231,1506.42669 1204.61692,1507.41083 L1205.42,1507.655 C1208.93,1508.705 1212.515,1509.875 1216.175,1511.165 C1219.835,1512.455 1223.42,1513.97 1226.93,1515.71 C1230.44,1517.45 1233.56,1519.67 1236.29,1522.37 C1239.02,1525.07 1241.225,1528.355 1242.905,1532.225 C1244.585,1536.095 1245.425,1540.76 1245.425,1546.22 C1245.425,1552.28 1244.375,1557.95 1242.275,1563.23 C1240.175,1568.51 1237.13,1573.115 1233.14,1577.045 C1229.15,1580.975 1224.23,1584.065 1218.38,1586.315 C1212.53,1588.565 1205.885,1589.69 1198.445,1589.69 C1194.365,1589.69 1190.21,1589.27 1185.98,1588.43 C1181.75,1587.59 1177.655,1586.405 1173.695,1584.875 C1169.735,1583.345 1166.015,1581.53 1162.535,1579.43 C1159.287,1577.47 1156.431,1575.30093 1153.967,1572.9228 L1153.445,1572.41 L1162.445,1558.19 L1162.66775,1557.88895 C1163.35625,1557.00065 1164.227,1556.246 1165.28,1555.625 C1166.45,1554.935 1167.725,1554.59 1169.105,1554.59 C1170.905,1554.59 1172.72,1555.16 1174.55,1556.3 L1175.6768,1556.9984 C1177.2176,1557.9488 1178.912,1558.976 1180.76,1560.08 C1183.07,1561.46 1185.725,1562.72 1188.725,1563.86 C1191.725,1565 1195.265,1565.57 1199.345,1565.57 C1204.865,1565.57 1209.155,1564.355 1212.215,1561.925 C1215.275,1559.495 1216.805,1555.64 1216.805,1550.36 C1216.805,1547.3 1215.965,1544.81 1214.285,1542.89 C1212.605,1540.97 1210.4,1539.38 1207.67,1538.12 C1204.94,1536.86 1201.835,1535.75 1198.355,1534.79 C1194.875,1533.83 1191.305,1532.765 1187.645,1531.595 C1183.985,1530.425 1180.415,1528.985 1176.935,1527.275 C1173.455,1525.565 1170.35,1523.315 1167.62,1520.525 C1164.89,1517.735 1162.685,1514.255 1161.005,1510.085 C1159.325,1505.915 1158.485,1500.77 1158.485,1494.65 C1158.485,1489.73 1159.475,1484.93 1161.455,1480.25 C1163.435,1475.57 1166.345,1471.4 1170.185,1467.74 C1174.025,1464.08 1178.735,1461.155 1184.315,1458.965 C1189.895,1456.775 1196.285,1455.68 1203.485,1455.68 Z M926.905,1455.68 C937.105,1455.68 946.39,1457.405 954.76,1460.855 C963.13,1464.305 970.285,1469.03 976.225,1475.03 C982.165,1481.03 986.77,1488.11 990.04,1496.27 C993.31,1504.43 994.945,1513.22 994.945,1522.64 C994.945,1532.12 993.31,1540.94 990.04,1549.1 C986.77,1557.26 982.165,1564.355 976.225,1570.385 C970.285,1576.415 963.13,1581.14 954.76,1584.56 C946.39,1587.98 937.105,1589.69 926.905,1589.69 C916.705,1589.69 907.405,1587.98 899.005,1584.56 C890.605,1581.14 883.42,1576.415 877.45,1570.385 C871.48,1564.355 866.86,1557.26 863.59,1549.1 C860.32,1540.94 858.685,1532.12 858.685,1522.64 C858.685,1513.16 860.32,1504.34 863.59,1496.18 C866.86,1488.02 871.48,1480.94 877.45,1474.94 C883.42,1468.94 890.605,1464.23 899.005,1460.81 C907.405,1457.39 916.705,1455.68 926.905,1455.68 Z M162.595,1455.68 C167.515,1455.68 172.15,1456.115 176.5,1456.985 C180.85,1457.855 184.915,1459.055 188.695,1460.585 C192.475,1462.115 195.955,1463.96 199.135,1466.12 C202.070385,1468.11385 204.699024,1470.26107 207.020917,1472.56166 L207.595,1473.14 L197.335,1486.91 L197.044796,1487.26541 C196.449694,1487.96704 195.766429,1488.61357 194.995,1489.205 C194.095,1489.895 192.835,1490.24 191.215,1490.24 C190.135,1490.24 189.115,1490 188.155,1489.52 C187.332143,1489.10857 186.465204,1488.62 185.554184,1488.05429 L182.62,1486.19459 C182.268571,1485.97296 181.908571,1485.74643 181.54,1485.515 C180.25,1484.705 178.72,1483.955 176.95,1483.265 C175.18,1482.575 173.11,1481.99 170.74,1481.51 C168.37,1481.03 165.595,1480.79 162.415,1480.79 C157.375,1480.79 152.77,1481.72 148.6,1483.58 C144.43,1485.44 140.83,1488.155 137.8,1491.725 C134.77,1495.295 132.43,1499.675 130.78,1504.865 C129.13,1510.055 128.305,1515.98 128.305,1522.64 C128.305,1529.36 129.22,1535.33 131.05,1540.55 C132.88,1545.77 135.37,1550.165 138.52,1553.735 C141.67,1557.305 145.345,1560.02 149.545,1561.88 C153.745,1563.74 158.245,1564.67 163.045,1564.67 C165.805,1564.67 168.325,1564.535 170.605,1564.265 C172.885,1563.995 175.015,1563.545 176.995,1562.915 C178.975,1562.285 180.835,1561.445 182.575,1560.395 C184.315,1559.345 186.085,1558.01 187.885,1556.39 C188.605,1555.79 189.385,1555.295 190.225,1554.905 C191.065,1554.515 191.935,1554.32 192.835,1554.32 C193.555,1554.32 194.275,1554.455 194.995,1554.725 C195.635,1554.965 196.251296,1555.35907 196.843889,1555.90722 L197.065,1556.12 L209.125,1568.81 L208.669159,1569.39728 C203.46591,1576.00604 197.002857,1581.01529 189.28,1584.425 C181.33,1587.935 171.925,1589.69 161.065,1589.69 C151.105,1589.69 142.18,1587.995 134.29,1584.605 C126.4,1581.215 119.71,1576.535 114.22,1570.565 C108.73,1564.595 104.515,1557.515 101.575,1549.325 C98.635,1541.135 97.165,1532.24 97.165,1522.64 C97.165,1512.86 98.755,1503.875 101.935,1495.685 C105.115,1487.495 109.585,1480.43 115.345,1474.49 C121.105,1468.55 128.005,1463.93 136.045,1460.63 C144.085,1457.33 152.935,1455.68 162.595,1455.68 Z M1034.325,1457.12 L1034.75722,1457.12222 C1035.88907,1457.13407 1036.855,1457.19333 1037.655,1457.3 C1038.555,1457.42 1039.365,1457.645 1040.085,1457.975 C1040.805,1458.305 1041.495,1458.77 1042.155,1459.37 C1042.74167,1459.90333 1043.39944,1460.60259 1044.12833,1461.46778 L1044.405,1461.8 L1106.775,1540.55 L1106.65194,1539.47459 C1106.41684,1537.33296 1106.24786,1535.24643 1106.145,1533.215 C1106.04214,1531.18357 1105.98337,1529.25133 1105.96867,1527.41827 L1105.965,1526.51 L1105.965,1457.12 L1132.785,1457.12 L1132.785,1588.25 L1116.945,1588.25 L1116.482,1588.245 C1114.34467,1588.19833 1112.534,1587.825 1111.05,1587.125 C1109.55937,1586.42188 1108.08193,1585.23096 1106.61768,1583.55225 L1106.325,1583.21 L1044.495,1505 L1044.60875,1506.16375 C1044.78792,1508.09292 1044.915,1509.97 1044.99,1511.795 C1045.06714,1513.67214 1045.11122,1515.4501 1045.12224,1517.12888 L1045.125,1517.96 L1045.125,1588.25 L1018.305,1588.25 L1018.305,1457.12 L1034.325,1457.12 Z M835.415,1457.12 L835.415,1588.25 L804.815,1588.25 L804.815,1457.12 L835.415,1457.12 Z M731.145,1457.12 L732.03512,1457.12342 C740.895578,1457.19178 748.533871,1458.28565 754.95,1460.405 C761.58,1462.595 767.04,1465.61 771.33,1469.45 C775.62,1473.29 778.785,1477.82 780.825,1483.04 C782.865,1488.26 783.885,1493.9 783.885,1499.96 C783.885,1506.5 782.835,1512.5 780.735,1517.96 C778.635,1523.42 775.425,1528.1 771.105,1532 C766.785,1535.9 761.31,1538.945 754.68,1541.135 C748.271,1543.252 740.72665,1544.34578 732.04695,1544.41635 L731.145,1544.42 L715.305,1544.42 L715.305,1588.25 L684.885,1588.25 L684.885,1457.12 L731.145,1457.12 Z M506.635,1457.12 L529.855,1457.12 L530.342266,1457.12141 C531.461172,1457.12797 532.45375,1457.1575 533.32,1457.21 C534.31,1457.27 535.195,1457.45 535.975,1457.75 C536.755,1458.05 537.46,1458.515 538.09,1459.145 C538.657,1459.712 539.21185,1460.48555 539.75455,1461.46565 L539.935,1461.8 L573.685,1528.31 L574.28125,1529.4575 C575.26875,1531.3825 576.225,1533.37 577.15,1535.42 C578.26,1537.88 579.325,1540.4 580.345,1542.98 C581.365,1540.34 582.43,1537.76 583.54,1535.24 C584.491429,1533.08 585.497959,1531.00816 586.559592,1529.02449 L587.095,1528.04 L620.755,1461.8 L620.93545,1461.46565 C621.47815,1460.48555 622.033,1459.712 622.6,1459.145 C623.23,1458.515 623.935,1458.05 624.715,1457.75 C625.495,1457.45 626.38,1457.27 627.37,1457.21 C628.1125,1457.165 628.947813,1457.13688 629.875938,1457.12563 L630.835,1457.12 L654.055,1457.12 L654.055,1588.25 L627.235,1588.25 L627.235,1512.83 L627.237109,1512.17047 C627.246953,1510.61516 627.29125,1508.945 627.37,1507.16 C627.442,1505.528 627.562,1503.8768 627.73,1502.2064 L627.865,1500.95 L593.035,1568.36 L592.840519,1568.72529 C591.782526,1570.64529 590.392353,1572.11353 588.67,1573.13 C586.954375,1574.1425 585.014629,1574.68039 582.850762,1574.74367 L582.415,1574.75 L578.275,1574.75 L577.839238,1574.74367 C575.675371,1574.68039 573.735625,1574.1425 572.02,1573.13 C570.297647,1572.11353 568.907474,1570.64529 567.849481,1568.72529 L567.655,1568.36 L532.825,1500.77 L532.9294,1502.0606 C533.0638,1503.7742 533.179,1505.459 533.275,1507.115 C533.38,1508.92625 533.439062,1510.61117 533.452188,1512.16977 L533.455,1512.83 L533.455,1588.25 L506.635,1588.25 L506.635,1457.12 Z M440.075,1457.12 L490.835,1588.25 L467.255,1588.25 L466.842396,1588.24489 C464.392202,1588.18356 462.399737,1587.57026 460.865,1586.405 C459.353,1585.257 458.180733,1583.80847 457.3482,1582.0594 L457.175,1581.68 L449.435,1558.82 L399.575,1558.82 L391.835,1581.68 L391.696,1582.0138 C391.014667,1583.56127 389.876,1584.965 388.28,1586.225 C386.66,1587.50395 384.67651,1588.17708 382.329529,1588.24439 L381.935,1588.25 L358.175,1588.25 L408.935,1457.12 L440.075,1457.12 Z M258.495,1457.12 L258.495,1511.93 L311.775,1511.93 L311.775,1457.12 L342.375,1457.12 L342.375,1588.25 L311.775,1588.25 L311.775,1532.81 L258.495,1532.81 L258.495,1588.25 L227.895,1588.25 L227.895,1457.12 L258.495,1457.12 Z M926.905,1480.79 C921.025,1480.79 915.79,1481.75 911.2,1483.67 C906.61,1485.59 902.74,1488.35 899.59,1491.95 C896.44,1495.55 894.025,1499.945 892.345,1505.135 C890.665,1510.325 889.825,1516.16 889.825,1522.64 C889.825,1529.18 890.665,1535.045 892.345,1540.235 C894.025,1545.425 896.44,1549.82 899.59,1553.42 C902.74,1557.02 906.61,1559.765 911.2,1561.655 C915.79,1563.545 921.025,1564.49 926.905,1564.49 C932.725,1564.49 937.915,1563.545 942.475,1561.655 C947.035,1559.765 950.89,1557.02 954.04,1553.42 C957.19,1549.82 959.605,1545.425 961.285,1540.235 C962.965,1535.045 963.805,1529.18 963.805,1522.64 C963.805,1516.16 962.965,1510.325 961.285,1505.135 C959.605,1499.945 957.19,1495.55 954.04,1491.95 C950.89,1488.35 947.035,1485.59 942.475,1483.67 C937.915,1481.75 932.725,1480.79 926.905,1480.79 Z M424.415,1484.12 C423.515,1487.78 422.555,1491.17 421.535,1494.29 L421.068491,1495.70018 C420.298077,1498.00077 419.563166,1500.05284 418.863757,1501.85639 L418.655,1502.39 L406.595,1538.12 L442.505,1538.12 L430.355,1502.21 L430.146243,1501.67666 C429.306953,1499.51453 428.416538,1497.00731 427.475,1494.155 C426.455,1491.065 425.435,1487.72 424.415,1484.12 Z M731.145,1479.89 L715.305,1479.89 L715.305,1521.47 L731.145,1521.47 C739.065,1521.47 744.765,1519.58 748.245,1515.8 C751.725,1512.02 753.465,1506.74 753.465,1499.96 C753.465,1496.96 753.015,1494.23 752.115,1491.77 C751.215,1489.31 749.85,1487.195 748.02,1485.425 C746.19,1483.655 743.88,1482.29 741.09,1481.33 C738.455,1480.42333 735.351713,1479.94481 731.780139,1479.89444 L731.145,1479.89 Z M641.59,1256.18 C645.61,1256.18 649.525,1256.495 653.335,1257.125 C657.145,1257.755 660.76,1258.685 664.18,1259.915 C667.6,1261.145 670.795,1262.615 673.765,1264.325 C676.506538,1265.90346 678.979675,1267.67364 681.184408,1269.63553 L681.73,1270.13 L674.17,1284.26 L673.944063,1284.6125 C673.112187,1285.8775 672.2425,1286.84 671.335,1287.5 C670.345,1288.22 669.07,1288.58 667.51,1288.58 C666.13,1288.58 664.645,1288.145 663.055,1287.275 L659.595,1285.395 C658.971667,1285.05833 658.325,1284.71 657.655,1284.35 C655.645,1283.27 653.35,1282.295 650.77,1281.425 C648.19,1280.555 645.25,1280.12 641.95,1280.12 C636.25,1280.12 632.005,1281.335 629.215,1283.765 C626.425,1286.195 625.03,1289.48 625.03,1293.62 C625.03,1296.26 625.87,1298.45 627.55,1300.19 C629.23,1301.93 631.435,1303.43 634.165,1304.69 C636.685,1305.85308 639.537308,1306.92669 642.721923,1307.91083 L643.525,1308.155 C647.035,1309.205 650.62,1310.375 654.28,1311.665 C657.94,1312.955 661.525,1314.47 665.035,1316.21 C668.545,1317.95 671.665,1320.17 674.395,1322.87 C677.125,1325.57 679.33,1328.855 681.01,1332.725 C682.69,1336.595 683.53,1341.26 683.53,1346.72 C683.53,1352.78 682.48,1358.45 680.38,1363.73 C678.28,1369.01 675.235,1373.615 671.245,1377.545 C667.255,1381.475 662.335,1384.565 656.485,1386.815 C650.635,1389.065 643.99,1390.19 636.55,1390.19 C632.47,1390.19 628.315,1389.77 624.085,1388.93 C619.855,1388.09 615.76,1386.905 611.8,1385.375 C607.84,1383.845 604.12,1382.03 600.64,1379.93 C597.392,1377.97 594.536,1375.80093 592.072,1373.4228 L591.55,1372.91 L600.55,1358.69 L600.77275,1358.38895 C601.46125,1357.50065 602.332,1356.746 603.385,1356.125 C604.555,1355.435 605.83,1355.09 607.21,1355.09 C609.01,1355.09 610.825,1355.66 612.655,1356.8 L613.7818,1357.4984 C615.3226,1358.4488 617.017,1359.476 618.865,1360.58 C621.175,1361.96 623.83,1363.22 626.83,1364.36 C629.83,1365.5 633.37,1366.07 637.45,1366.07 C642.97,1366.07 647.26,1364.855 650.32,1362.425 C653.38,1359.995 654.91,1356.14 654.91,1350.86 C654.91,1347.8 654.07,1345.31 652.39,1343.39 C650.71,1341.47 648.505,1339.88 645.775,1338.62 C643.045,1337.36 639.94,1336.25 636.46,1335.29 C632.98,1334.33 629.41,1333.265 625.75,1332.095 C622.09,1330.925 618.52,1329.485 615.04,1327.775 C611.56,1326.065 608.455,1323.815 605.725,1321.025 C602.995,1318.235 600.79,1314.755 599.11,1310.585 C597.43,1306.415 596.59,1301.27 596.59,1295.15 C596.59,1290.23 597.58,1285.43 599.56,1280.75 C601.54,1276.07 604.45,1271.9 608.29,1268.24 C612.13,1264.58 616.84,1261.655 622.42,1259.465 C628,1257.275 634.39,1256.18 641.59,1256.18 Z M536.42,1256.18 C540.44,1256.18 544.355,1256.495 548.165,1257.125 C551.975,1257.755 555.59,1258.685 559.01,1259.915 C562.43,1261.145 565.625,1262.615 568.595,1264.325 C571.336538,1265.90346 573.809675,1267.67364 576.014408,1269.63553 L576.56,1270.13 L569,1284.26 L568.774062,1284.6125 C567.942187,1285.8775 567.0725,1286.84 566.165,1287.5 C565.175,1288.22 563.9,1288.58 562.34,1288.58 C560.96,1288.58 559.475,1288.145 557.885,1287.275 L554.425,1285.395 C553.801667,1285.05833 553.155,1284.71 552.485,1284.35 C550.475,1283.27 548.18,1282.295 545.6,1281.425 C543.02,1280.555 540.08,1280.12 536.78,1280.12 C531.08,1280.12 526.835,1281.335 524.045,1283.765 C521.255,1286.195 519.86,1289.48 519.86,1293.62 C519.86,1296.26 520.7,1298.45 522.38,1300.19 C524.06,1301.93 526.265,1303.43 528.995,1304.69 C531.515,1305.85308 534.367308,1306.92669 537.551923,1307.91083 L538.355,1308.155 C541.865,1309.205 545.45,1310.375 549.11,1311.665 C552.77,1312.955 556.355,1314.47 559.865,1316.21 C563.375,1317.95 566.495,1320.17 569.225,1322.87 C571.955,1325.57 574.16,1328.855 575.84,1332.725 C577.52,1336.595 578.36,1341.26 578.36,1346.72 C578.36,1352.78 577.31,1358.45 575.21,1363.73 C573.11,1369.01 570.065,1373.615 566.075,1377.545 C562.085,1381.475 557.165,1384.565 551.315,1386.815 C545.465,1389.065 538.82,1390.19 531.38,1390.19 C527.3,1390.19 523.145,1389.77 518.915,1388.93 C514.685,1388.09 510.59,1386.905 506.63,1385.375 C502.67,1383.845 498.95,1382.03 495.47,1379.93 C492.222,1377.97 489.366,1375.80093 486.902,1373.4228 L486.38,1372.91 L495.38,1358.69 L495.60275,1358.38895 C496.29125,1357.50065 497.162,1356.746 498.215,1356.125 C499.385,1355.435 500.66,1355.09 502.04,1355.09 C503.84,1355.09 505.655,1355.66 507.485,1356.8 L508.6118,1357.4984 C510.1526,1358.4488 511.847,1359.476 513.695,1360.58 C516.005,1361.96 518.66,1363.22 521.66,1364.36 C524.66,1365.5 528.2,1366.07 532.28,1366.07 C537.8,1366.07 542.09,1364.855 545.15,1362.425 C548.21,1359.995 549.74,1356.14 549.74,1350.86 C549.74,1347.8 548.9,1345.31 547.22,1343.39 C545.54,1341.47 543.335,1339.88 540.605,1338.62 C537.875,1337.36 534.77,1336.25 531.29,1335.29 C527.81,1334.33 524.24,1333.265 520.58,1332.095 C516.92,1330.925 513.35,1329.485 509.87,1327.775 C506.39,1326.065 503.285,1323.815 500.555,1321.025 C497.825,1318.235 495.62,1314.755 493.94,1310.585 C492.26,1306.415 491.42,1301.27 491.42,1295.15 C491.42,1290.23 492.41,1285.43 494.39,1280.75 C496.37,1276.07 499.28,1271.9 503.12,1268.24 C506.96,1264.58 511.67,1261.655 517.25,1259.465 C522.83,1257.275 529.22,1256.18 536.42,1256.18 Z M202.28,1256.18 C207.2,1256.18 211.835,1256.615 216.185,1257.485 C220.535,1258.355 224.6,1259.555 228.38,1261.085 C232.16,1262.615 235.64,1264.46 238.82,1266.62 C241.755385,1268.61385 244.384024,1270.76107 246.705917,1273.06166 L247.28,1273.64 L237.02,1287.41 L236.729796,1287.76541 C236.134694,1288.46704 235.451429,1289.11357 234.68,1289.705 C233.78,1290.395 232.52,1290.74 230.9,1290.74 C229.82,1290.74 228.8,1290.5 227.84,1290.02 C227.017143,1289.60857 226.150204,1289.12 225.239184,1288.55429 L222.305,1286.69459 C221.953571,1286.47296 221.593571,1286.24643 221.225,1286.015 C219.935,1285.205 218.405,1284.455 216.635,1283.765 C214.865,1283.075 212.795,1282.49 210.425,1282.01 C208.055,1281.53 205.28,1281.29 202.1,1281.29 C197.06,1281.29 192.455,1282.22 188.285,1284.08 C184.115,1285.94 180.515,1288.655 177.485,1292.225 C174.455,1295.795 172.115,1300.175 170.465,1305.365 C168.815,1310.555 167.99,1316.48 167.99,1323.14 C167.99,1329.86 168.905,1335.83 170.735,1341.05 C172.565,1346.27 175.055,1350.665 178.205,1354.235 C181.355,1357.805 185.03,1360.52 189.23,1362.38 C193.43,1364.24 197.93,1365.17 202.73,1365.17 C205.49,1365.17 208.01,1365.035 210.29,1364.765 C212.57,1364.495 214.7,1364.045 216.68,1363.415 C218.66,1362.785 220.52,1361.945 222.26,1360.895 C224,1359.845 225.77,1358.51 227.57,1356.89 C228.29,1356.29 229.07,1355.795 229.91,1355.405 C230.75,1355.015 231.62,1354.82 232.52,1354.82 C233.24,1354.82 233.96,1354.955 234.68,1355.225 C235.32,1355.465 235.936296,1355.85907 236.528889,1356.40722 L236.75,1356.62 L248.81,1369.31 L248.354159,1369.89728 C243.15091,1376.50604 236.687857,1381.51529 228.965,1384.925 C221.015,1388.435 211.61,1390.19 200.75,1390.19 C190.79,1390.19 181.865,1388.495 173.975,1385.105 C166.085,1381.715 159.395,1377.035 153.905,1371.065 C148.415,1365.095 144.2,1358.015 141.26,1349.825 C138.32,1341.635 136.85,1332.74 136.85,1323.14 C136.85,1313.36 138.44,1304.375 141.62,1296.185 C144.8,1287.995 149.27,1280.93 155.03,1274.99 C160.79,1269.05 167.69,1264.43 175.73,1261.13 C183.77,1257.83 192.62,1256.18 202.28,1256.18 Z M322.66,1256.18 C327.58,1256.18 332.215,1256.615 336.565,1257.485 C340.915,1258.355 344.98,1259.555 348.76,1261.085 C352.54,1262.615 356.02,1264.46 359.2,1266.62 C362.135385,1268.61385 364.764024,1270.76107 367.085917,1273.06166 L367.66,1273.64 L357.4,1287.41 L357.109796,1287.76541 C356.514694,1288.46704 355.831429,1289.11357 355.06,1289.705 C354.16,1290.395 352.9,1290.74 351.28,1290.74 C350.2,1290.74 349.18,1290.5 348.22,1290.02 C347.397143,1289.60857 346.530204,1289.12 345.619184,1288.55429 L341.605,1286.015 L341.605,1286.015 C340.315,1285.205 338.785,1284.455 337.015,1283.765 C335.245,1283.075 333.175,1282.49 330.805,1282.01 C328.435,1281.53 325.66,1281.29 322.48,1281.29 C317.44,1281.29 312.835,1282.22 308.665,1284.08 C304.495,1285.94 300.895,1288.655 297.865,1292.225 C294.835,1295.795 292.495,1300.175 290.845,1305.365 C289.195,1310.555 288.37,1316.48 288.37,1323.14 C288.37,1329.86 289.285,1335.83 291.115,1341.05 C292.945,1346.27 295.435,1350.665 298.585,1354.235 C301.735,1357.805 305.41,1360.52 309.61,1362.38 C313.81,1364.24 318.31,1365.17 323.11,1365.17 C325.87,1365.17 328.39,1365.035 330.67,1364.765 C332.95,1364.495 335.08,1364.045 337.06,1363.415 C339.04,1362.785 340.9,1361.945 342.64,1360.895 C344.38,1359.845 346.15,1358.51 347.95,1356.89 C348.67,1356.29 349.45,1355.795 350.29,1355.405 C351.13,1355.015 352,1354.82 352.9,1354.82 C353.62,1354.82 354.34,1354.955 355.06,1355.225 C355.7,1355.465 356.316296,1355.85907 356.908889,1356.40722 L357.13,1356.62 L369.19,1369.31 L368.734159,1369.89728 C363.53091,1376.50604 357.067857,1381.51529 349.345,1384.925 C341.395,1388.435 331.99,1390.19 321.13,1390.19 C311.17,1390.19 302.245,1388.495 294.355,1385.105 C286.465,1381.715 279.775,1377.035 274.285,1371.065 C268.795,1365.095 264.58,1358.015 261.64,1349.825 C258.7,1341.635 257.23,1332.74 257.23,1323.14 C257.23,1313.36 258.82,1304.375 262,1296.185 C265.18,1287.995 269.65,1280.93 275.41,1274.99 C281.17,1269.05 288.07,1264.43 296.11,1261.13 C304.15,1257.83 313,1256.18 322.66,1256.18 Z M1243.86,1257.62 L1244.25184,1257.62461 C1246.70711,1257.68304 1248.6615,1258.2965 1250.115,1259.465 C1251.53571,1260.60714 1252.73656,1262.04676 1253.71753,1263.78385 L1253.94,1264.19 L1272.48,1302.35 L1272.99444,1303.34278 L1273.99,1305.285 C1274.96333,1307.19833 1275.87,1309.025 1276.71,1310.765 C1277.97,1313.375 1279.08,1315.94 1280.04,1318.46 C1280.94,1315.88 1281.975,1313.285 1283.145,1310.675 C1284.198,1308.326 1285.40895,1305.84335 1286.77785,1303.22705 L1287.24,1302.35 L1305.6,1264.19 L1305.8175,1263.8 C1306.1925,1263.15 1306.63,1262.5 1307.13,1261.85 C1307.73,1261.07 1308.435,1260.365 1309.245,1259.735 C1310.055,1259.105 1310.985,1258.595 1312.035,1258.205 C1312.96833,1257.85833 1313.98463,1257.66574 1315.08389,1257.62722 L1315.5,1257.62 L1342.5,1257.62 L1294.98,1338.89 L1294.98,1388.75 L1264.56,1388.75 L1264.56,1338.89 L1217.04,1257.62 L1243.86,1257.62 Z M1211.32,1257.62 L1211.32,1281.74 L1174.42,1281.74 L1174.42,1388.75 L1144,1388.75 L1144,1281.74 L1107.1,1281.74 L1107.1,1257.62 L1211.32,1257.62 Z M737.49,1257.62 L737.49,1388.75 L706.89,1388.75 L706.89,1257.62 L737.49,1257.62 Z M472.38,1257.62 L472.38,1281.02 L418.56,1281.02 L418.56,1311.62 L459.78,1311.62 L459.78,1334.12 L418.56,1334.12 L418.56,1365.35 L472.38,1365.35 L472.38,1388.75 L387.96,1388.75 L387.96,1257.62 L472.38,1257.62 Z M816.56,1257.62 L817.4615,1257.6228 C826.1325,1257.67693 833.542,1258.516 839.69,1260.14 C846.05,1261.82 851.24,1264.19 855.26,1267.25 C859.28,1270.31 862.205,1274.03 864.035,1278.41 C865.865,1282.79 866.78,1287.68 866.78,1293.08 C866.78,1296.02 866.36,1298.855 865.52,1301.585 C864.68,1304.315 863.36,1306.865 861.56,1309.235 C859.76,1311.605 857.45,1313.78 854.63,1315.76 C851.81,1317.74 848.42,1319.45 844.46,1320.89 C853.1,1322.99 859.49,1326.38 863.63,1331.06 C867.77,1335.74 869.84,1341.8 869.84,1349.24 C869.84,1354.82 868.76,1360.01 866.6,1364.81 C864.44,1369.61 861.275,1373.795 857.105,1377.365 C852.935,1380.935 847.79,1383.725 841.67,1385.735 C835.776667,1387.67056 829.076584,1388.67418 821.569753,1388.74586 L820.7,1388.75 L768.32,1388.75 L768.32,1257.62 L816.56,1257.62 Z M81.9,1257.62 L132.66,1388.75 L109.08,1388.75 L108.667396,1388.74489 C106.217202,1388.68356 104.224737,1388.07026 102.69,1386.905 C101.178,1385.757 100.005733,1384.30847 99.1732,1382.5594 L99,1382.18 L91.26,1359.32 L41.4,1359.32 L33.66,1382.18 L33.521,1382.5138 C32.8396667,1384.06127 31.701,1385.465 30.105,1386.725 C28.485,1388.00395 26.5015097,1388.67708 24.1545291,1388.74439 L23.76,1388.75 L0,1388.75 L50.76,1257.62 L81.9,1257.62 Z M1086.26,1257.62 L1086.26,1388.75 L1055.66,1388.75 L1055.66,1257.62 L1086.26,1257.62 Z M924.88,1257.62 L924.88,1388.75 L894.28,1388.75 L894.28,1257.62 L924.88,1257.62 Z M986.13,1257.62 L986.13,1364.45 L1034.73,1364.45 L1034.73,1388.75 L955.71,1388.75 L955.71,1257.62 L986.13,1257.62 Z M819.98,1333.13 L798.74,1333.13 L798.74,1365.8 L820.16,1365.8 C824.18,1365.8 827.465,1365.29 830.015,1364.27 C832.565,1363.25 834.56,1361.93 836,1360.31 C837.44,1358.69 838.43,1356.86 838.97,1354.82 C839.51,1352.78 839.78,1350.71 839.78,1348.61 C839.78,1346.21 839.465,1344.05 838.835,1342.13 C838.205,1340.21 837.125,1338.59 835.595,1337.27 C834.065,1335.95 832.04,1334.93 829.52,1334.21 C827.14,1333.53 824.171296,1333.17111 820.613889,1333.13333 L819.98,1333.13 Z M66.24,1284.62 C65.34,1288.28 64.38,1291.67 63.36,1294.79 L62.8934911,1296.20018 C62.1230769,1298.50077 61.3881657,1300.55284 60.6887574,1302.35639 L60.48,1302.89 L48.42,1338.62 L84.33,1338.62 L72.18,1302.71 L71.9712426,1302.17666 C71.1319527,1300.01453 70.2415385,1297.50731 69.3,1294.655 C68.28,1291.565 67.26,1288.22 66.24,1284.62 Z M816.56,1280.39 L798.74,1280.39 L798.74,1312.79 L814.58,1312.79 C817.94,1312.79 820.97,1312.55 823.67,1312.07 C826.37,1311.59 828.665,1310.75 830.555,1309.55 C832.445,1308.35 833.885,1306.7 834.875,1304.6 C835.865,1302.5 836.36,1299.86 836.36,1296.68 C836.36,1293.56 835.97,1290.965 835.19,1288.895 C834.41,1286.825 833.21,1285.16 831.59,1283.9 C829.97,1282.64 827.915,1281.74 825.425,1281.2 C823.101,1280.696 820.371933,1280.4272 817.2378,1280.3936 L816.56,1280.39 Z M674.300165,0 C880.799112,0 1036.19768,91.6067639 1137.17672,272.746654 L1138.352,274.878 L1138.54778,274.875272 L1138.552,275.24 L1140.22003,278.263145 L1138.609,279.143 L1142.93269,577.097133 C1143.75943,588.498592 1144.18,600.012681 1144.18,611.625 C1144.18,618.584002 1144.02896,625.507727 1143.72998,632.393075 L1143.4183,638.627708 C1129.42611,885.981886 924.410991,1082.25 673.555,1082.25 C425.877139,1082.25 222.885981,890.923482 204.31519,648.004111 L203.665281,638.156602 C203.177258,629.374812 202.93,620.528781 202.93,611.625 C202.93,602.721219 203.177258,593.875188 203.665281,585.093398 L203.68,278.141 L203.276015,277.912126 L203.68,277.205 L203.68,276.75 L203.94,276.75 L206.426096,272.402122 C310.909462,91.4754828 467.919241,0 674.300165,0 Z M673.555,193.5 C580.911883,193.5 495.305954,223.62978 426.001599,274.624954 L426.003899,274.973335 L425.53774,274.966759 C392.298937,299.494791 362.822517,328.827661 338.133757,361.940092 L338.13392,363.374274 L337.078273,363.361952 C290.407962,426.510244 261.090382,503.262713 256.167878,586.577012 L256.167878,636.672988 C269.122683,855.935489 451.040564,1029.75 673.555,1029.75 C897.744225,1029.75 1080.72348,853.309159 1091.20587,631.714379 L1090.45742,579.410021 C1080.93222,454.398802 1016.4346,344.757777 921.086301,274.608693 L921.057523,274.612702 L921.06018,274.589477 C851.764339,223.615807 766.176631,193.5 673.555,193.5 Z M498.30925,468.90675 L601.09825,734.445 L553.34875,734.445 L552.817592,734.440849 C547.716347,734.360591 543.58015,733.1166 540.409,730.708875 C537.27113,728.326418 534.85583,725.304766 533.163098,721.643918 L532.93675,721.14075 L517.26325,674.84925 L416.29675,674.84925 L400.62325,721.14075 L400.45065,721.56426 C399.084936,724.797826 396.742844,727.724531 393.424375,730.344375 C390.07705,732.987 385.963364,734.352356 381.083316,734.440444 L380.57575,734.445 L332.46175,734.445 L435.25075,468.90675 L498.30925,468.90675 Z M754.55275,527.91525 L834.49975,734.445 L797.36125,734.445 L796.885045,734.440701 C792.946381,734.369058 789.750365,733.401865 787.297,731.539125 C784.873075,729.698737 783.003511,727.367954 781.688307,724.546775 L781.48525,724.09725 L769.29475,688.09275 L690.76525,688.09275 L678.57475,724.09725 L678.412623,724.492201 C677.346545,726.981213 675.534212,729.235688 672.975625,731.255625 C670.385962,733.300096 667.206547,734.361648 663.437381,734.440282 L662.98225,734.445 L625.56025,734.445 L705.50725,527.91525 L754.55275,527.91525 Z M952.74625,586.92375 L1009.85125,734.445 L983.32375,734.445 L982.903367,734.440293 C980.126837,734.377538 977.870714,733.687232 976.135,732.369375 C974.426406,731.072109 973.103433,729.433718 972.166079,727.454202 L971.98375,727.05375 L963.27625,701.33625 L907.18375,701.33625 L898.47625,727.05375 L898.33011,727.40595 C897.564802,729.156072 896.280391,730.743047 894.476875,732.166875 C892.644732,733.613304 890.399324,734.370957 887.740651,734.439834 L887.33875,734.445 L860.60875,734.445 L917.71375,586.92375 L952.74625,586.92375 Z M935.12875,617.29875 C934.11625,621.41625 933.03625,625.23 931.88875,628.74 L931.43335,630.1188 C930.52975,632.826 929.66935,635.2308 928.85215,637.3332 L928.64875,637.8525 L915.08125,678.04875 L955.48,678.04875 L941.81125,637.65 L941.593253,637.093383 L941.151059,635.938307 C940.332793,633.769525 939.472857,631.319464 938.57125,628.588125 C937.42375,625.111875 936.27625,621.34875 935.12875,617.29875 Z M729.88825,570.44025 C728.47075,576.20475 726.95875,581.544 725.35225,586.458 L724.789174,588.164886 C723.484485,592.083529 722.243887,595.553543 721.067378,598.574927 L720.81625,599.2155 L701.82175,655.49025 L758.38,655.49025 L739.24375,598.932 L738.992622,598.291673 C737.648041,594.841278 736.21975,590.825846 734.70775,586.245375 C733.10125,581.378625 731.49475,576.11025 729.88825,570.44025 Z M466.59775,523.58175 C464.77525,530.99325 462.83125,537.858 460.76575,544.176 L460.149745,546.045885 C458.414725,551.2716 456.767489,555.882829 455.208036,559.879571 L454.93375,560.5785 L430.51225,632.93175 L503.23,632.93175 L478.62625,560.214 L478.351964,559.515299 L477.76693,557.999865 C476.19601,553.885605 474.53845,549.186525 472.79425,543.902625 C470.72875,537.645375 468.66325,530.87175 466.59775,523.58175 Z M256.177145,291.338915 L256.172248,393.977747 C265.050448,376.986831 274.935719,360.605459 285.748846,344.912846 L286.39706,245.243211 C275.877059,259.779606 265.804799,275.144171 256.177145,291.338915 Z M1061.28885,249.797321 L1061.31131,344.840519 C1070.83977,358.663246 1079.64822,373.020609 1087.68251,387.858447 L1086.25459,289.386855 C1078.27104,275.582506 1069.94982,262.386425 1061.28885,249.797321 Z M973.547469,152.378358 L973.559692,248.999881 C985.849046,259.178473 997.612446,269.969823 1008.80306,281.327101 L1008.77353,185.168791 C997.475829,173.459392 985.73482,162.529879 973.547469,152.378358 Z M339.305091,182.85725 L338.659778,280.969383 C349.744445,269.743483 361.389412,259.072135 373.549312,249.000705 L373.740228,151.717747 C361.869528,161.386674 350.391987,171.765972 339.305091,182.85725 Z M883.544137,95.2174779 L883.493146,190.304159 C896.359757,196.727842 908.890869,203.723568 921.053163,211.258019 L921.043617,115.095492 C908.912974,107.835791 896.413895,101.210254 883.544137,95.2174779 Z M426.310968,115.047141 L426.125528,211.215474 C438.190681,203.744066 450.618639,196.802752 463.376887,190.424049 L463.538663,95.5016159 C450.785526,101.406194 438.376966,107.920938 426.310968,115.047141 Z M516.071952,75.2352883 L515.912574,168.051457 C529.391471,163.2609 543.153245,159.067295 557.166091,155.502445 L557.325046,64.3635058 C543.238289,67.4022152 529.487893,71.0257352 516.071952,75.2352883 Z M793.558999,64.9181537 L793.510192,156.424688 C806.228155,159.767113 818.735791,163.628406 831.009104,167.984571 L831.050626,74.9197517 C818.844346,71.0957845 806.347649,67.7622388 793.558999,64.9181537 Z M699.80719,53.0143601 L699.750451,141.71672 C713.676026,142.480709 727.44033,143.850098 741.017493,145.799017 L741.061623,56.1747817 C727.600098,54.6409815 713.849121,53.5878205 699.80719,53.0143601 Z M609.837521,55.9107548 L609.683967,145.297609 C622.057162,143.618771 634.583149,142.420806 647.242489,141.723157 L647.301811,53.0767642 C634.583838,53.6271426 622.096094,54.5715793 609.837521,55.9107548 Z" id="Shape" fill="#000000" fill-rule="nonzero"></path>
    </g>
</svg>