<svg xmlns="http://www.w3.org/2000/svg" width="82" height="82" viewBox="0 0 82 82">
  <g fill="#FFF">
    <path d="M74.3,70.7 C74.3,72.7 72.7,74.3 70.7,74.3 L11.3,74.3 C9.3,74.3 7.7,72.7 7.7,70.7 L7.7,11.3 C7.7,9.3 9.3,7.7 11.3,7.7 L34.7,7.7 L34.7,0.5 L11.3,0.5 C5.3,0.5 0.5,5.3 0.5,11.3 L0.5,70.7 C0.5,76.7 5.3,81.5 11.3,81.5 L70.7,81.5 C76.7,81.5 81.5,76.7 81.5,70.7 L81.5,47.3 L74.3,47.3 L74.3,70.7 Z"/>
    <polygon points="47.3 .5 47.3 7.7 69.2 7.7 40.9 36 46 41.1 74.3 12.8 74.3 34.7 81.5 34.7 81.5 .5"/>
  </g>
</svg>
